<svg width="20" height="20" viewBox="0 0 20 20" fill="none" xmlns="http://www.w3.org/2000/svg">
<rect width="20" height="20" fill="#E5E5E5"/>
<g clip-path="url(#clip0_0_1)">
<rect width="1440" height="1024" transform="translate(-768 -512)" fill="white"/>
<path d="M-768 -515.014H221.461L-407.038 234.514L-768 934.498V-515.014Z" fill="url(#paint0_linear_0_1)"/>
<path d="M-186.778 -314.856L317 -576.915L-155.487 -65.3141L-408.941 656.715L-768 983.702L-186.778 -314.856Z" fill="url(#paint1_linear_0_1)" fill-opacity="0.7"/>
<path d="M-831 226L52 -359.5L-453.277 242.638L-275 607L-813.172 554.314L-831 226Z" fill="#40DBE4" fill-opacity="0.3"/>
<path d="M17.5 17.5L13.7617 13.755L17.5 17.5ZM15.8334 8.75C15.8334 10.6286 15.0871 12.4303 13.7587 13.7587C12.4303 15.0871 10.6286 15.8333 8.75002 15.8333C6.8714 15.8333 5.06973 15.0871 3.74135 13.7587C2.41296 12.4303 1.66669 10.6286 1.66669 8.75C1.66669 6.87138 2.41296 5.06971 3.74135 3.74133C5.06973 2.41295 6.8714 1.66667 8.75002 1.66667C10.6286 1.66667 12.4303 2.41295 13.7587 3.74133C15.0871 5.06971 15.8334 6.87138 15.8334 8.75V8.75Z" stroke="#898989" stroke-width="2" stroke-linecap="round"/>
<rect x="-19.5" y="-14.5" width="380" height="48" rx="9.5" stroke="black"/>
</g>
<defs>
<linearGradient id="paint0_linear_0_1" x1="-273.269" y1="-515.014" x2="-273.269" y2="934.498" gradientUnits="userSpaceOnUse">
<stop stop-color="#40DBE4"/>
<stop offset="0.744792" stop-color="#CFDA50"/>
</linearGradient>
<linearGradient id="paint1_linear_0_1" x1="-672.5" y1="790.5" x2="-826.5" y2="-886" gradientUnits="userSpaceOnUse">
<stop stop-color="#CFDA50"/>
<stop offset="1" stop-color="#2BE6AE"/>
</linearGradient>
<clipPath id="clip0_0_1">
<rect width="1440" height="1024" fill="white" transform="translate(-768 -512)"/>
</clipPath>
</defs>
</svg>
